<svg width="1928" height="1928" xmlns="http://www.w3.org/2000/svg" xmlns:xlink="http://www.w3.org/1999/xlink" overflow="hidden"><defs><linearGradient x1="964" y1="1928" x2="964" y2="0" gradientUnits="userSpaceOnUse" spreadMethod="reflect" id="fill0"><stop offset="0" stop-color="#0D6DFD"/><stop offset="0.48" stop-color="#217AFD"/><stop offset="1" stop-color="#4892FE"/></linearGradient></defs><g><rect x="0" y="0" width="1928" height="1928" fill="url(#fill0)"/><path d="M80.3333 964C80.3333 1008.18 116.483 1044.33 160.667 1044.33L160.667 883.667C116.483 883.667 80.3333 919.817 80.3333 964Z" fill="#FFFFFF"/><path d="M1767.33 883.667 1767.33 1044.33C1811.52 1044.33 1847.67 1008.18 1847.67 964 1847.67 919.817 1811.52 883.667 1767.33 883.667Z" fill="#FFFFFF"/><path d="M301.25 662.75 281.167 662.75C236.983 662.75 200.833 698.9 200.833 743.083L200.833 1184.92C200.833 1229.1 236.983 1265.25 281.167 1265.25L301.25 1265.25C345.433 1265.25 381.583 1229.1 381.583 1184.92L381.583 743.083C381.583 698.9 345.433 662.75 301.25 662.75Z" fill="#FFFFFF"/><path d="M1646.83 662.75 1626.75 662.75C1582.57 662.75 1546.42 698.9 1546.42 743.083L1546.42 1184.92C1546.42 1229.1 1582.57 1265.25 1626.75 1265.25L1646.83 1265.25C1691.02 1265.25 1727.17 1229.1 1727.17 1184.92L1727.17 743.083C1727.17 698.9 1691.02 662.75 1646.83 662.75Z" fill="#FFFFFF"/><path d="M1425.92 482 1385.75 482C1341.57 482 1305.42 518.15 1305.42 562.333L1305.42 843.5 622.583 843.5 622.583 562.333C622.583 518.15 586.433 482 542.25 482L502.083 482C457.9 482 421.75 518.15 421.75 562.333L421.75 1365.67C421.75 1409.85 457.9 1446 502.083 1446L542.25 1446C586.433 1446 622.583 1409.85 622.583 1365.67L622.583 1084.5 1305.42 1084.5 1305.42 1365.67C1305.42 1409.85 1341.57 1446 1385.75 1446L1425.92 1446C1470.1 1446 1506.25 1409.85 1506.25 1365.67L1506.25 562.333C1506.25 518.15 1470.1 482 1425.92 482Z" fill="#FFFFFF"/></g></svg>