<svg width="1928" height="1928" xmlns="http://www.w3.org/2000/svg" xmlns:xlink="http://www.w3.org/1999/xlink" overflow="hidden"><defs><linearGradient x1="964" y1="1928" x2="964" y2="0" gradientUnits="userSpaceOnUse" spreadMethod="reflect" id="fill0"><stop offset="0" stop-color="#0D6DFD"/><stop offset="0.48" stop-color="#217AFD"/><stop offset="1" stop-color="#4892FE"/></linearGradient></defs><g><rect x="0" y="0" width="1928" height="1928" fill="url(#fill0)"/><g><g><g><path d="M339.75 964C339.75 995.213 365.288 1020.75 396.5 1020.75L396.5 907.25C365.288 907.25 339.75 932.787 339.75 964Z" fill="#FFFFFF"/><path d="M1531.5 907.25 1531.5 1020.75C1562.71 1020.75 1588.25 995.213 1588.25 964 1588.25 932.787 1562.71 907.25 1531.5 907.25Z" fill="#FFFFFF"/><path d="M495.812 751.188 481.625 751.188C450.413 751.188 424.875 776.725 424.875 807.938L424.875 1120.06C424.875 1151.28 450.413 1176.81 481.625 1176.81L495.812 1176.81C527.025 1176.81 552.562 1151.28 552.562 1120.06L552.562 807.938C552.562 776.725 527.025 751.188 495.812 751.188Z" fill="#FFFFFF"/><path d="M1446.38 751.188 1432.19 751.188C1400.98 751.188 1375.44 776.725 1375.44 807.938L1375.44 1120.06C1375.44 1151.28 1400.98 1176.81 1432.19 1176.81L1446.38 1176.81C1477.59 1176.81 1503.12 1151.28 1503.12 1120.06L1503.12 807.938C1503.12 776.725 1477.59 751.188 1446.38 751.188Z" fill="#FFFFFF"/><path d="M1290.31 623.5 1261.94 623.5C1230.73 623.5 1205.19 649.037 1205.19 680.25L1205.19 878.875 722.812 878.875 722.812 680.25C722.812 649.037 697.275 623.5 666.062 623.5L637.688 623.5C606.475 623.5 580.938 649.037 580.938 680.25L580.938 1247.75C580.938 1278.96 606.475 1304.5 637.688 1304.5L666.062 1304.5C697.275 1304.5 722.812 1278.96 722.812 1247.75L722.812 1049.12 1205.19 1049.12 1205.19 1247.75C1205.19 1278.96 1230.73 1304.5 1261.94 1304.5L1290.31 1304.5C1321.52 1304.5 1347.06 1278.96 1347.06 1247.75L1347.06 680.25C1347.06 649.037 1321.52 623.5 1290.31 623.5Z" fill="#FFFFFF"/></g></g></g></g></svg>